<?xml version="1.0" encoding="UTF-8" standalone="no"?>
<!DOCTYPE svg PUBLIC "-//W3C//DTD SVG 1.1//EN" "http://www.w3.org/Graphics/SVG/1.1/DTD/svg11.dtd">
<svg width="456" height="456" viewBox="0 0 456 456" version="1.1" xmlns="http://www.w3.org/2000/svg" xmlns:xlink="http://www.w3.org/1999/xlink" xml:space="preserve" xmlns:serif="http://www.serif.com/" style="fill-rule:evenodd;clip-rule:evenodd;stroke-linejoin:round;stroke-miterlimit:2;">
    <path d="m 168.31115,291.60036 c -2.80658,-21.35114 -5.11393,-39.06505 -5.12756,-39.36133 -0.0228,-0.50033 0.71551,-1.10611 9.57813,-7.85942 5.28147,-4.0245 9.6463,-7.31772 9.69927,-7.31823 0.053,-5.3e-4 0.3321,1.6889 0.62015,3.75442 1.90889,13.68863 4.55624,26.53979 7.64861,37.12739 1.00136,3.42878 3.37922,10.60097 3.73503,11.26643 0.13882,0.2595 -2.12408,4.7854 -10.31596,20.63192 -5.77153,11.1647 -10.54801,20.36238 -10.61461,20.43947 -0.0664,0.0769 -2.41703,-17.32927 -5.22353,-38.6796 z M 271.691,310.22671 c -5.67372,-11.12668 -10.31595,-20.32357 -10.31595,-20.43737 0,-0.11382 0.63645,-2.11982 1.41435,-4.45791 4.98414,-14.9797 8.52697,-30.26564 10.37312,-44.75213 0.22648,-1.77735 0.44264,-3.26228 0.48029,-3.30004 0.0377,-0.0377 4.38345,3.27748 9.65705,7.36701 8.24512,6.39398 9.57813,7.49548 9.51495,7.86387 -0.0404,0.23554 -2.42372,17.6279 -5.29617,38.65077 -2.87239,21.02181 -5.2875,38.4646 -5.36721,38.76089 -0.12761,0.47517 -1.35632,-1.83792 -10.46069,-19.69221 z m -47.43443,71.4545 c 0.12411,-1.73471 -0.36134,-4.22901 -1.27104,-6.53086 -0.58822,-1.48837 -1.12397,-2.58819 -3.84017,-7.88302 -2.41774,-4.71329 -3.23606,-6.54815 -4.13724,-9.27791 -1.38291,-4.18811 -1.8002,-7.01567 -1.70668,-11.56377 0.0713,-3.46706 0.3458,-5.49491 1.17218,-8.65886 0.28814,-1.1032 0.37459,-1.64299 0.27857,-1.73901 -0.1692,-0.16922 -0.11523,-0.22751 -0.85057,0.91851 -1.31627,2.05137 -2.29393,4.43929 -2.7038,6.60427 -0.11037,0.58302 -0.3321,2.05845 -0.49275,3.2788 -0.48053,3.65007 -1.02441,5.37455 -2.31887,7.35181 -0.77051,1.17703 -2.36834,3.02682 -2.5288,2.9277 -0.0679,-0.042 -0.12346,-0.46776 -0.12346,-0.94619 0,-2.36103 -0.61512,-6.57097 -2.14948,-14.71173 -1.64047,-8.70344 -2.11674,-12.81446 -1.97851,-17.0765 0.15793,-4.86878 1.0499,-8.63762 2.93506,-12.40202 1.10357,-2.20362 2.65896,-4.52974 4.1118,-6.14962 l 0.53914,-0.60106 2.40562,0.76754 c 6.66799,2.12748 11.6954,2.90621 17.73357,2.74679 3.90861,-0.10314 5.18919,-0.26293 13.51401,-1.68638 1.73791,-0.29718 3.42852,-0.55956 3.75705,-0.58311 l 0.59715,-0.0428 0.64421,1.21016 c 2.07075,3.88999 3.65216,9.03197 4.15585,13.51321 0.20749,1.84565 0.20617,5.98024 -0.002,7.9331 -0.34589,3.23711 -1.26026,7.34892 -2.44453,10.99296 -0.674,2.07399 -2.04756,5.67791 -3.87137,10.15811 -2.12434,5.21803 -2.71429,7.07152 -3.01896,9.48296 l -0.15843,1.25425 -0.94998,-1.45593 c -2.45833,-3.76754 -3.84017,-6.92416 -4.52215,-10.33012 -0.23263,-1.16191 -0.29555,-1.94119 -0.29309,-3.63093 0.004,-2.47265 0.29917,-4.29168 1.07311,-6.60506 0.51624,-1.54305 0.53698,-1.66437 0.28433,-1.66437 -0.23202,0 -1.17201,1.66329 -1.70522,3.0174 -1.31928,3.35011 -1.60639,6.63441 -1.28191,14.66426 0.21159,5.23638 0.19695,7.11975 -0.0757,9.74856 -0.62676,6.04107 -2.9382,10.84928 -7.15227,14.87797 -1.12734,1.07777 -3.4529,3.00532 -3.62594,3.00532 -0.035,0 -0.0341,-0.41157 0.002,-0.91463 z m 3.15111,-268.2821 c -3.93692,-0.15021 -10.92872,-1.18349 -18.95096,-2.80055 -1.35943,-0.27405 -1.61051,-0.34275 -1.59423,-0.4363 0.0106,-0.0611 0.45248,-1.04221 0.98194,-2.18034 5.41179,-11.633775 10.60202,-20.726052 16.8392,-29.50002 0.89588,-1.260181 2.97885,-4.081653 3.49853,-4.73951 l 0.2672,-0.338027 1.57397,2.101735 c 6.12155,8.174057 11.02336,16.162475 15.70781,25.598762 1.59781,3.21849 4.32,9.16805 4.22822,9.24094 -0.0316,0.0251 -2.48234,0.52733 -4.2568,0.87244 -6.93019,1.34773 -12.56379,2.11026 -16.30328,2.2068 -0.42523,0.011 -1.32137,-0.001 -1.99139,-0.0265 z m -24.65957,180.66041 c -0.89997,-2.34417 -2.91827,-8.47979 -4.44584,-13.51479 -5.36564,-17.68585 -8.86784,-35.84786 -10.47459,-54.32241 -0.58321,-6.70547 -0.81274,-25.50698 -0.40019,-32.78012 1.25346,-22.0963 5.57199,-44.38506 12.74417,-65.78051 2.72294,-8.12214 4.02031,-11.42952 4.4823,-11.42585 0.22418,0.002 2.21933,0.36519 4.43379,0.8076 9.2024,1.83854 12.97938,2.28181 19.37022,2.2735 6.27757,-0.008 9.88726,-0.4154 19.90012,-2.24492 l 4.03394,-0.73704 0.2294,0.55389 c 0.91099,2.19951 3.70253,10.31753 5.03713,14.64855 5.81714,18.87728 9.13134,36.5689 10.78529,57.57367 0.46839,5.94772 0.47248,28.76062 0.006,34.55521 -1.29199,16.06074 -3.17655,28.19427 -6.53374,42.06984 -2.10763,8.71026 -5.77519,20.65526 -8.38593,27.31328 l -0.63276,1.61352 -49.86502,0.13727 -0.28446,-0.74095 z m 29.95363,-22.60969 c 6.46924,-3.18467 8.06813,-11.5656 3.20144,-16.77996 -5.09793,-5.46239 -14.18549,-4.09424 -17.39612,2.61903 -1.01505,2.12238 -1.24539,5.50775 -0.52956,7.78338 0.98846,3.14272 3.63958,5.85622 6.71413,6.87224 2.51887,0.83241 5.71516,0.63497 8.00992,-0.49474 z m -0.0761,-37.32666 c 5.34309,-2.50193 7.60587,-8.82641 5.08771,-14.22089 -0.80385,-1.72218 -3.22951,-4.14956 -4.94482,-4.94823 -5.39972,-2.51435 -11.70692,-0.26339 -14.24003,5.08195 -0.76208,1.60807 -0.82875,1.97594 -0.82875,4.57249 0,2.52752 0.0766,2.97963 0.73044,4.31081 0.95519,1.94492 2.29736,3.48646 3.96995,4.55991 2.02417,1.2989 3.29689,1.62196 6.05653,1.53724 2.04098,-0.0626 2.69436,-0.20262 4.16897,-0.89315 z m 0.33905,-37.43154 c 2.08273,-1.02533 3.85511,-2.85404 4.95215,-5.10921 0.66686,-1.37098 0.74531,-1.82549 0.75173,-4.35434 0.006,-2.51334 -0.0725,-2.99379 -0.71782,-4.3706 -0.92924,-1.98285 -3.03994,-4.21169 -4.86091,-5.13307 -6.17899,-3.1262 -13.68836,0.39044 -15.24504,7.13942 -0.94154,4.08191 0.81139,8.66725 4.20619,11.00292 2.10748,1.44999 3.65689,1.87022 6.56153,1.77968 2.27311,-0.0708 2.78482,-0.18311 4.35251,-0.95485 z m 0.9603,-30.24204 c 2.67889,-0.94756 4.61603,-2.16254 6.65331,-4.17289 1.99605,-1.96957 3.35746,-4.16635 4.35355,-7.0251 0.62299,-1.78771 0.71187,-2.46265 0.71187,-5.40445 0,-2.98094 -0.0846,-3.60472 -0.74744,-5.51038 -0.98567,-2.83358 -2.27259,-4.90076 -4.32,-6.93884 -3.28221,-3.26752 -6.73957,-4.74685 -11.58186,-4.95582 -5.49229,-0.23726 -9.21473,1.19479 -13.06302,5.02504 -3.61284,3.59607 -5.196,7.37855 -5.18132,12.38 0.0216,7.38352 4.20568,13.51976 11.12433,16.31429 2.40475,0.97131 3.55463,1.14606 6.9855,1.06164 2.51092,-0.0618 3.46365,-0.20736 5.06516,-0.77383 z" style="fill:#ffeeaa;fill-rule:nonzero" />
</svg>